<?xml version="1.0" encoding="UTF-8" standalone="no"?>
<svg viewBox="0 0 50 50"
 xmlns="http://www.w3.org/2000/svg" xmlns:xlink="http://www.w3.org/1999/xlink"  version="1.2" baseProfile="tiny">
<title>Qt SVG Document</title>
<desc>Generated with Qt</desc>
<defs>
</defs>
<g fill="none" stroke="black" stroke-width="1" fill-rule="evenodd" stroke-linecap="square" stroke-linejoin="bevel" >

<g fill="#000000" fill-opacity="1" stroke="none" transform="matrix(3.125,0,0,3.125,0,0)"
font-family="Noto Sans" font-size="10" font-weight="400" font-style="normal" 
opacity="0.001" >
<rect x="0" y="0" width="16" height="16"/>
</g>

<g fill="#cc575d" fill-opacity="1" stroke="none" transform="matrix(3.125,0,0,3.125,0,0)"
font-family="Noto Sans" font-size="10" font-weight="400" font-style="normal" 
>
<path vector-effect="none" fill-rule="nonzero" d="M8.00001,1.00002 C4.13402,1.00002 1.00001,4.13403 1.00001,8.00002 C1.00001,11.866 4.13402,15 8.00001,15 C11.866,15 15,11.866 15,8.00002 C15,4.13403 11.866,1.00002 8.00001,1.00002 M5.00001,4.9219 L5.75001,4.9219 C5.75801,4.9218 5.76561,4.92155 5.77341,4.9219 C5.96462,4.9303 6.15581,5.01832 6.28903,5.15627 L8.00001,6.86721 L9.73439,5.15627 C9.9336,4.98339 10.0694,4.92715 10.25,4.9219 L11,4.9219 L11,5.6719 C11,5.88675 10.9742,6.08488 10.8125,6.2344 L9.10157,7.94533 L10.7891,9.63283 C10.9302,9.77396 11,9.97292 11,10.1719 L11,10.9219 L10.25,10.9219 C10.051,10.9219 9.85207,10.8521 9.71095,10.711 L8.00001,9.00002 L6.28907,10.711 C6.14795,10.8521 5.94898,10.9219 5.75001,10.9219 L5.00001,10.9219 L5.00001,10.1719 C5.00001,9.97293 5.06981,9.77396 5.21095,9.63283 L6.92189,7.94533 L5.21095,6.2344 C5.05289,6.08842 4.98358,5.88246 5.00001,5.6719 L5.00001,4.9219"/>
</g>

<g fill="none" stroke="#000000" stroke-opacity="1" stroke-width="1" stroke-linecap="square" stroke-linejoin="bevel" transform="matrix(1,0,0,1,0,0)"
font-family="Noto Sans" font-size="10" font-weight="400" font-style="normal" 
>
</g>
</g>
</svg>
