<?xml version="1.0" encoding="UTF-8" standalone="no"?>
<svg viewBox="0 0 50 50"
 xmlns="http://www.w3.org/2000/svg" xmlns:xlink="http://www.w3.org/1999/xlink"  version="1.2" baseProfile="tiny">
<title>Qt SVG Document</title>
<desc>Generated with Qt</desc>
<defs>
</defs>
<g fill="none" stroke="black" stroke-width="1" fill-rule="evenodd" stroke-linecap="square" stroke-linejoin="bevel" >

<g fill="#000000" fill-opacity="1" stroke="none" transform="matrix(3.125,0,0,3.125,-168.75,0)"
font-family="Noto Sans" font-size="10" font-weight="400" font-style="normal" 
opacity="0.001" >
<rect x="54" y="0" width="16" height="16"/>
</g>

<g fill="#b9bcc2" fill-opacity="1" stroke="none" transform="matrix(3.125,0,0,3.125,-168.75,0)"
font-family="Noto Sans" font-size="10" font-weight="400" font-style="normal" 
opacity="0.4" >
<path vector-effect="none" fill-rule="nonzero" d="M62,1.00002 C58.134,1.00002 55,4.13403 55,8.00002 C55,11.866 58.134,15 62,15 C65.866,15 69,11.866 69,8.00002 C69,4.13403 65.866,1.00002 62,1.00002 M59,4.9219 L59.75,4.9219 C59.758,4.9218 59.7656,4.92155 59.7734,4.9219 C59.9646,4.9303 60.1558,5.01832 60.289,5.15627 L62,6.86721 L63.7344,5.15627 C63.9336,4.98339 64.0694,4.92714 64.25,4.92189 L65,4.92189 L65,5.67189 C65,5.88675 64.9742,6.08488 64.8125,6.23439 L63.1016,7.94533 L64.7891,9.63283 C64.9302,9.77396 65,9.97292 65,10.1719 L65,10.9219 L64.25,10.9219 C64.051,10.9219 63.8521,10.8521 63.711,10.711 L62,9.00002 L60.2891,10.711 C60.148,10.8521 59.949,10.9219 59.75,10.9219 L59,10.9219 L59,10.1719 C59,9.97293 59.0698,9.77396 59.211,9.63283 L60.9219,7.94533 L59.211,6.23439 C59.0529,6.08842 58.9836,5.88246 59,5.6719 L59,4.9219"/>
</g>

<g fill="none" stroke="#000000" stroke-opacity="1" stroke-width="1" stroke-linecap="square" stroke-linejoin="bevel" transform="matrix(1,0,0,1,0,0)"
font-family="Noto Sans" font-size="10" font-weight="400" font-style="normal" 
>
</g>
</g>
</svg>
