<?xml version="1.0" encoding="UTF-8" standalone="no"?>
<svg viewBox="0 0 50 50"
 xmlns="http://www.w3.org/2000/svg" xmlns:xlink="http://www.w3.org/1999/xlink"  version="1.2" baseProfile="tiny">
<title>Qt SVG Document</title>
<desc>Generated with Qt</desc>
<defs>
</defs>
<g fill="none" stroke="black" stroke-width="1" fill-rule="evenodd" stroke-linecap="square" stroke-linejoin="bevel" >

<g fill="#000000" fill-opacity="1" stroke="none" transform="matrix(3.125,0,0,3.125,-56.25,0)"
font-family="Noto Sans" font-size="10" font-weight="400" font-style="normal" 
opacity="0.001" >
<rect x="18" y="0" width="16" height="16"/>
</g>

<g fill="#5f697f" fill-opacity="1" stroke="none" transform="matrix(3.125,0,0,3.125,-56.25,0)"
font-family="Noto Sans" font-size="10" font-weight="400" font-style="normal" 
opacity="0.45" >
<circle cx="26" cy="8" r="6"/>
</g>

<g fill="#15171c" fill-opacity="1" stroke="none" transform="matrix(3.125,0,0,3.125,-56.25,0)"
font-family="Noto Sans" font-size="10" font-weight="400" font-style="normal" 
opacity="0.37" >
<path vector-effect="none" fill-rule="nonzero" d="M26,1 C22.134,1 19,4.13401 19,8 C19,11.866 22.134,15 26,15 C29.866,15 33,11.866 33,8 C33,4.13401 29.866,1 26,1 M26,2 C29.3137,2 32,4.68629 32,8 C32,11.3137 29.3137,14 26,14 C22.6863,14 20,11.3137 20,8 C20,4.68629 22.6863,2 26,2 "/>
</g>

<g fill="#c4c7cc" fill-opacity="1" stroke="none" transform="matrix(3.125,0,0,3.125,-56.25,0)"
font-family="Noto Sans" font-size="10" font-weight="400" font-style="normal" 
>
<path vector-effect="none" fill-rule="nonzero" d="M24.7995,5 L28.1812,5 C28.6315,5 28.9975,5.36847 29,5.8188 L29,9.2005 L24.7995,5 M27.2069,11.0069 L23.8118,11.0069 C23.3615,11.0069 22.9931,10.6385 22.9931,10.1882 L22.9931,6.79308 L27.2069,11.0069"/>
</g>

<g fill="none" stroke="#000000" stroke-opacity="1" stroke-width="1" stroke-linecap="square" stroke-linejoin="bevel" transform="matrix(1,0,0,1,0,0)"
font-family="Noto Sans" font-size="10" font-weight="400" font-style="normal" 
>
</g>
</g>
</svg>
