<?xml version="1.0" encoding="UTF-8" standalone="no"?>
<svg viewBox="0 0 50 50"
 xmlns="http://www.w3.org/2000/svg" xmlns:xlink="http://www.w3.org/1999/xlink"  version="1.2" baseProfile="tiny">
<title>Qt SVG Document</title>
<desc>Generated with Qt</desc>
<defs>
</defs>
<g fill="none" stroke="black" stroke-width="1" fill-rule="evenodd" stroke-linecap="square" stroke-linejoin="bevel" >

<g fill="#000000" fill-opacity="1" stroke="none" transform="matrix(3.125,0,0,3.125,-112.5,0)"
font-family="Noto Sans" font-size="10" font-weight="400" font-style="normal" 
opacity="0.001" >
<rect x="36" y="0" width="16" height="16"/>
</g>

<g fill="#be3841" fill-opacity="1" stroke="none" transform="matrix(3.125,0,0,3.125,-112.5,0)"
font-family="Noto Sans" font-size="10" font-weight="400" font-style="normal" 
>
<path vector-effect="none" fill-rule="nonzero" d="M44,1.00001 C40.134,1.00001 37,4.13402 37,8.00001 C37,11.866 40.134,15 44,15 C47.866,15 51,11.866 51,8.00001 C51,4.13402 47.866,1.00001 44,1.00001 M41,4.92189 L41.75,4.92189 C41.758,4.92179 41.7656,4.92154 41.7734,4.92189 C41.9646,4.92989 42.1558,5.01829 42.289,5.15626 L44,6.8672 L45.7344,5.15626 C45.9336,4.98339 46.0694,4.92713 46.25,4.92189 L47,4.92189 L47,5.67189 C47,5.88674 46.9742,6.08487 46.8125,6.23439 L45.1015,7.94532 L46.789,9.63282 C46.9302,9.77395 47,9.97291 47,10.1719 L47,10.9219 L46.25,10.9219 C46.051,10.9219 45.852,10.8521 45.7109,10.7109 L44,9.00001 L42.2891,10.711 C42.148,10.8521 41.949,10.9219 41.75,10.9219 L41,10.9219 L41,10.1719 C41,9.97292 41.0698,9.77395 41.211,9.63282 L42.9219,7.94532 L41.2109,6.23439 C41.0529,6.08841 40.9836,5.88245 41,5.67189 L41,4.92189"/>
</g>

<g fill="none" stroke="#000000" stroke-opacity="1" stroke-width="1" stroke-linecap="square" stroke-linejoin="bevel" transform="matrix(1,0,0,1,0,0)"
font-family="Noto Sans" font-size="10" font-weight="400" font-style="normal" 
>
</g>
</g>
</svg>
